<svg xmlns="http://www.w3.org/2000/svg" id="Animation" enable-background="new 0 0 64 64" viewBox="0 0 64 64">
  <path fill="#bd6e00" d="M13.13 10.66H7.16c-.54 0-.97.43-.97.97v5.4c0 .54.43.97.97.97h5.97c.54 0 .97-.43.97-.97v-5.4C14.1 11.1 13.67 10.66 13.13 10.66zM12.16 16.07H8.13V12.6h4.03V16.07zM13.13 22.44H7.16c-.54 0-.97.43-.97.97v5.4c0 .54.43.97.97.97h5.97c.54 0 .97-.43.97-.97v-5.4C14.1 22.88 13.67 22.44 13.13 22.44zM12.16 27.84H8.13v-3.47h4.03V27.84zM13.13 34.22H7.16c-.54 0-.97.44-.97.97v5.41c0 .53.43.97.97.97h5.97c.54 0 .97-.44.97-.97v-5.41C14.1 34.65 13.67 34.22 13.13 34.22zM12.16 39.63H8.13v-3.47h4.03V39.63zM13.13 45.99H7.16c-.54 0-.97.43-.97.97v5.4c0 .54.43.97.97.97h5.97c.54 0 .97-.43.97-.97v-5.4C14.1 46.42 13.67 45.99 13.13 45.99zM12.16 51.4H8.13v-3.46h4.03V51.4z" class="color2b2e63 svgShape"></path>
  <path fill="#bd6e00" d="M63.03,1.59h-6.19c-0.53,0-0.97,0.43-0.97,0.97V4.3h-4.03V2.56c0-0.54-0.44-0.97-0.97-0.97h-6.19
		c-0.54,0-0.97,0.43-0.97,0.97v10.81H20.3V2.56c0-0.54-0.44-0.97-0.97-0.97h-6.19c-0.54,0-0.97,0.43-0.97,0.97V4.3H8.13V2.56
		c0-0.54-0.43-0.97-0.97-0.97H0.97C0.44,1.59,0,2.02,0,2.56v58.89c0,0.53,0.44,0.97,0.97,0.97h6.19c0.54,0,0.97-0.44,0.97-0.97
		v-1.73h4.04v1.73c0,0.53,0.43,0.97,0.97,0.97h6.19c0.53,0,0.97-0.44,0.97-0.97V50.63h23.41v10.81c0,0.53,0.43,0.97,0.97,0.97h6.19
		c0.53,0,0.97-0.44,0.97-0.97v-1.73h4.03v1.73c0,0.53,0.44,0.97,0.97,0.97h6.19c0.54,0,0.97-0.44,0.97-0.97V2.56
		C64,2.02,63.57,1.59,63.03,1.59z M18.36,60.47h-4.25v-1.73c0-0.54-0.44-0.97-0.97-0.97H7.16c-0.53,0-0.97,0.43-0.97,0.97v1.73H1.94
		V3.53h4.25v1.74c0,0.53,0.44,0.97,0.97,0.97h5.98c0.53,0,0.97-0.44,0.97-0.97V3.53h4.25V60.47z M43.71,48.69H20.3V15.31h23.41
		V48.69z M62.06,60.47h-4.25v-1.73c0-0.54-0.43-0.97-0.97-0.97h-5.97c-0.54,0-0.97,0.43-0.97,0.97v1.73h-4.25V3.53h4.25v1.74
		c0,0.53,0.43,0.97,0.97,0.97h5.97c0.54,0,0.97-0.44,0.97-0.97V3.53h4.25V60.47z" class="color2b2e63 svgShape"></path>
  <path fill="#ededed" d="M14.11,3.53v1.74c0,0.53-0.44,0.97-0.97,0.97H7.16c-0.53,0-0.97-0.44-0.97-0.97V3.53H1.94v56.95h4.25v-1.73
		c0-0.54,0.44-0.97,0.97-0.97h5.98c0.53,0,0.97,0.43,0.97,0.97v1.73h4.25V3.53H14.11z M14.1,52.37c0,0.54-0.43,0.97-0.97,0.97H7.16
		c-0.54,0-0.97-0.43-0.97-0.97v-5.4c0-0.54,0.43-0.97,0.97-0.97h5.97c0.54,0,0.97,0.43,0.97,0.97V52.37z M14.1,40.6
		c0,0.53-0.43,0.97-0.97,0.97H7.16c-0.54,0-0.97-0.44-0.97-0.97v-5.41c0-0.53,0.43-0.97,0.97-0.97h5.97c0.54,0,0.97,0.44,0.97,0.97
		V40.6z M14.1,28.82c0,0.54-0.43,0.97-0.97,0.97H7.16c-0.54,0-0.97-0.43-0.97-0.97v-5.4c0-0.54,0.43-0.97,0.97-0.97h5.97
		c0.54,0,0.97,0.43,0.97,0.97V28.82z M14.1,17.03c0,0.54-0.43,0.97-0.97,0.97H7.16c-0.54,0-0.97-0.43-0.97-0.97v-5.4
		c0-0.54,0.43-0.97,0.97-0.97h5.97c0.54,0,0.97,0.43,0.97,0.97V17.03z" class="colorededed svgShape"></path>
  <rect width="4.03" height="3.46" x="8.13" y="12.6" fill="#e5a64e" class="color4ebde5 svgShape"></rect>
  <rect width="4.03" height="3.47" x="8.13" y="24.38" fill="#e5a64e" class="color4ebde5 svgShape"></rect>
  <rect width="4.03" height="3.47" x="8.13" y="36.15" fill="#e5a64e" class="color4ebde5 svgShape"></rect>
  <rect width="4.03" height="3.46" x="8.13" y="47.94" fill="#e5a64e" class="color4ebde5 svgShape"></rect>
  <path fill="#ededed" d="M57.81,3.53v1.74c0,0.53-0.43,0.97-0.97,0.97h-5.97c-0.54,0-0.97-0.44-0.97-0.97V3.53h-4.25v56.95h4.25v-1.73
		c0-0.54,0.43-0.97,0.97-0.97h5.97c0.54,0,0.97,0.43,0.97,0.97v1.73h4.25V3.53H57.81z M57.81,52.37c0,0.54-0.44,0.97-0.97,0.97
		h-5.98c-0.53,0-0.97-0.43-0.97-0.97v-5.4c0-0.54,0.44-0.97,0.97-0.97h5.98c0.53,0,0.97,0.43,0.97,0.97V52.37z M57.81,40.6
		c0,0.53-0.44,0.97-0.97,0.97h-5.98c-0.53,0-0.97-0.44-0.97-0.97v-5.41c0-0.53,0.44-0.97,0.97-0.97h5.98c0.53,0,0.97,0.44,0.97,0.97
		V40.6z M57.81,28.82c0,0.54-0.44,0.97-0.97,0.97h-5.98c-0.53,0-0.97-0.43-0.97-0.97v-5.4c0-0.54,0.44-0.97,0.97-0.97h5.98
		c0.53,0,0.97,0.43,0.97,0.97V28.82z M57.81,17.03c0,0.54-0.44,0.97-0.97,0.97h-5.98c-0.53,0-0.97-0.43-0.97-0.97v-5.4
		c0-0.54,0.44-0.97,0.97-0.97h5.98c0.53,0,0.97,0.43,0.97,0.97V17.03z" class="colorededed svgShape"></path>
  <path fill="#bd6e00" d="M56.84,10.66h-5.98c-0.53,0-0.97,0.43-0.97,0.97v5.4c0,0.54,0.44,0.97,0.97,0.97h5.98
		c0.53,0,0.97-0.43,0.97-0.97v-5.4C57.81,11.1,57.37,10.66,56.84,10.66z M55.87,16.07h-4.04V12.6h4.04V16.07z" class="color2b2e63 svgShape"></path>
  <rect width="4.04" height="3.46" x="51.83" y="12.6" fill="#e5a64e" class="color4ebde5 svgShape"></rect>
  <path fill="#bd6e00" d="M56.84,22.44h-5.98c-0.53,0-0.97,0.43-0.97,0.97v5.4c0,0.54,0.44,0.97,0.97,0.97h5.98
		c0.53,0,0.97-0.43,0.97-0.97v-5.4C57.81,22.88,57.37,22.44,56.84,22.44z M55.87,27.84h-4.04v-3.47h4.04V27.84z" class="color2b2e63 svgShape"></path>
  <rect width="4.04" height="3.47" x="51.83" y="24.38" fill="#e5a64e" class="color4ebde5 svgShape"></rect>
  <path fill="#bd6e00" d="M56.84,34.22h-5.98c-0.53,0-0.97,0.44-0.97,0.97v5.41c0,0.53,0.44,0.97,0.97,0.97h5.98
		c0.53,0,0.97-0.44,0.97-0.97v-5.41C57.81,34.65,57.37,34.22,56.84,34.22z M55.87,39.63h-4.04v-3.47h4.04V39.63z" class="color2b2e63 svgShape"></path>
  <rect width="4.04" height="3.47" x="51.83" y="36.15" fill="#e5a64e" class="color4ebde5 svgShape"></rect>
  <path fill="#bd6e00" d="M56.84,45.99h-5.98c-0.53,0-0.97,0.43-0.97,0.97v5.4c0,0.54,0.44,0.97,0.97,0.97h5.98
		c0.53,0,0.97-0.43,0.97-0.97v-5.4C57.81,46.42,57.37,45.99,56.84,45.99z M55.87,51.4h-4.04v-3.46h4.04V51.4z" class="color2b2e63 svgShape"></path>
  <rect width="4.04" height="3.46" x="51.83" y="47.94" fill="#e5a64e" class="color4ebde5 svgShape"></rect>
</svg>
