<svg xmlns="http://www.w3.org/2000/svg" viewBox="0 0 64 64" id="ChemicalGenes">
  <circle cx="32" cy="32" r="32" fill="#b66b05" class="colordbae1f svgShape"></circle>
  <path fill="#ffffff" d="M30.73 23.77a3.344 3.344 0 0 0 2.54 0c.58-.25 1.08-.66 1.44-1.17.38-.54.6-1.19.6-1.89 0-1.82-1.48-3.31-3.31-3.31s-3.31 1.49-3.31 3.31c0 .71.22 1.36.6 1.89.35.51.85.92 1.44 1.17zm2.54 16.47a3.344 3.344 0 0 0-2.54 0c-.58.24-1.08.65-1.44 1.16-.38.54-.6 1.19-.6 1.89 0 1.83 1.48 3.31 3.31 3.31s3.31-1.48 3.31-3.31c0-.7-.21-1.35-.6-1.89-.35-.5-.85-.91-1.44-1.16zm-7.75-6.46c.15-.22.27-.46.35-.71.13-.33.19-.69.19-1.07a3 3 0 0 0-.09-.74 3.161 3.161 0 0 0-1.9-2.2c-.36-.15-.76-.23-1.18-.23-.39 0-.77.07-1.11.21-.47.18-.88.46-1.21.82-.36.39-.62.86-.74 1.39a3.06 3.06 0 0 0 0 1.48c.13.53.38 1.01.74 1.39.33.37.74.65 1.21.82.35.13.72.21 1.11.21.42 0 .82-.08 1.18-.23.6-.22 1.09-.63 1.45-1.14zm18.65-1.04a3.06 3.06 0 0 0 0-1.48c-.13-.52-.38-.99-.74-1.38-.33-.37-.75-.66-1.22-.83-.35-.13-.72-.21-1.11-.21-.42 0-.82.08-1.18.23-.58.24-1.08.64-1.43 1.16-.21.31-.38.66-.46 1.04a3.125 3.125 0 0 0 .1 1.81c.09.26.21.49.35.71a3.205 3.205 0 0 0 2.62 1.38c.39 0 .77-.07 1.11-.21.47-.18.89-.46 1.22-.83.36-.39.62-.87.74-1.39zm3.63 7.07c-.15 0-.31.01-.46.06l-3.53-5.19c-.34.35-.76.64-1.22.83l3.54 5.19c-.23.32-.36.72-.36 1.15 0 1.13.91 2.04 2.03 2.04 1.12 0 2.03-.91 2.03-2.04.01-1.12-.91-2.04-2.03-2.04zM16.2 24.19c.16 0 .32-.02.46-.06l3.53 5.19c.35-.35.76-.63 1.21-.82l-3.54-5.18c.23-.32.36-.73.36-1.16 0-1.13-.91-2.03-2.03-2.03-1.12 0-2.03.91-2.03 2.03 0 1.11.92 2.03 2.04 2.03zm37.48 5.78c-.86 0-1.6.54-1.89 1.3h-6.94c.05.24.08.48.08.74 0 .25-.03.5-.08.74h6.94c.29.76 1.03 1.3 1.89 1.3 1.12 0 2.03-.91 2.03-2.03 0-1.14-.91-2.05-2.03-2.05zm-15.62 4.34-4.36 5.41c.57.28 1.06.68 1.44 1.17l4.36-5.42c-.57-.27-1.06-.67-1.44-1.16zm-7.76 5.4-4.36-5.41c-.4.51-.88.89-1.44 1.15l4.36 5.42c.38-.49.87-.89 1.44-1.16zM25.94 29.7l4.36-5.41c-.58-.28-1.06-.68-1.43-1.17l-4.37 5.42c.57.26 1.06.66 1.44 1.16zm13.56-1.16-4.36-5.42c-.37.49-.87.89-1.44 1.17l4.37 5.41c.37-.5.86-.89 1.43-1.16zm-19.31 6.14-3.53 5.19c-.15-.04-.3-.06-.46-.06-1.12 0-2.03.91-2.03 2.03 0 1.13.91 2.04 2.03 2.04 1.12 0 2.03-.91 2.03-2.04 0-.42-.13-.82-.35-1.14l3.53-5.19c-.46-.19-.87-.47-1.22-.83zM19.08 32c0-.26.03-.5.08-.74h-6.93a2.04 2.04 0 0 0-1.9-1.3c-1.12 0-2.03.91-2.03 2.03 0 1.12.91 2.03 2.03 2.03.86 0 1.61-.54 1.9-1.3h6.93c-.05-.22-.08-.47-.08-.72zm24.73-2.68 3.53-5.2c.15.04.3.06.46.06 1.12 0 2.03-.91 2.03-2.03 0-1.13-.91-2.03-2.03-2.03-1.12 0-2.03.91-2.03 2.03 0 .43.13.83.36 1.16l-3.54 5.18c.46.19.88.48 1.22.83zm-6.36 3.75c-.1-.34-.17-.69-.17-1.07 0-.26.03-.5.08-.74H26.65c.05.24.08.48.08.74 0 .37-.07.72-.17 1.07h10.89z" class="colorffffff svgShape"></path>
</svg>
