<svg xmlns="http://www.w3.org/2000/svg" viewBox="0 0 48 48" id="Construction">
  <path d="M-510.028 745.19c-13.252 0-24 10.749-24 24 0 13.253 10.748 24 24 24s24-10.747 24-24c0-13.251-10.748-24-24-24zm0 1.5c12.424 0 22.5 10.077 22.5 22.5 0 12.424-10.076 22.5-22.5 22.5s-22.5-10.076-22.5-22.5c0-12.423 10.076-22.5 22.5-22.5z" style="line-height:normal;text-indent:0;text-align:start;text-decoration-line:none;text-decoration-style:solid;text-decoration-color:#000;text-transform:none;block-progression:tb;white-space:normal;isolation:auto;mix-blend-mode:normal;solid-color:#000;solid-opacity:1" transform="translate(534.028 -745.19)" color="#000" font-style="normal" font-variant="normal" font-weight="400" font-stretch="normal" font-size="medium" font-family="sans-serif" text-decoration="none" letter-spacing="normal" word-spacing="normal" direction="ltr" writing-mode="lr-tb" baseline-shift="baseline" text-anchor="start" clip-rule="nonzero" display="inline" overflow="visible" visibility="visible" opacity="1" color-interpolation="sRGB" color-interpolation-filters="linearRGB" fill="#e3af63" fill-opacity="1" fill-rule="nonzero" stroke="none" stroke-width=".99999994" stroke-linecap="round" stroke-linejoin="round" stroke-miterlimit="4" stroke-dasharray="none" stroke-dashoffset="0" stroke-opacity="1" color-rendering="auto" image-rendering="auto" shape-rendering="auto" text-rendering="auto" enable-background="accumulate" class="color639ae3 svgShape"></path>
  <path d="M-510.028 749.44c-10.905 0-19.75 8.846-19.75 19.75 0 10.906 8.845 19.75 19.75 19.75s19.75-8.844 19.75-19.75c0-10.904-8.845-19.75-19.75-19.75z" style="line-height:normal;text-indent:0;text-align:start;text-decoration-line:none;text-decoration-style:solid;text-decoration-color:#000;text-transform:none;block-progression:tb;white-space:normal;isolation:auto;mix-blend-mode:normal;solid-color:#000;solid-opacity:1" transform="translate(534.028 -745.19)" color="#000" font-style="normal" font-variant="normal" font-weight="400" font-stretch="normal" font-size="medium" font-family="sans-serif" text-decoration="none" letter-spacing="normal" word-spacing="normal" direction="ltr" writing-mode="lr-tb" baseline-shift="baseline" text-anchor="start" clip-rule="nonzero" display="inline" overflow="visible" visibility="visible" opacity="1" color-interpolation="sRGB" color-interpolation-filters="linearRGB" fill="#e3af63" fill-opacity="1" fill-rule="nonzero" stroke="none" stroke-width=".99999994" stroke-linecap="round" stroke-linejoin="round" stroke-miterlimit="4" stroke-dasharray="none" stroke-dashoffset="0" stroke-opacity="1" color-rendering="auto" image-rendering="auto" shape-rendering="auto" text-rendering="auto" enable-background="accumulate" class="color639ae3 svgShape"></path>
  <path d="M-510.028 749.44c-10.905 0-19.75 8.846-19.75 19.75a19.685 19.685 0 0 0 5.798 13.973l27.925-27.924a19.685 19.685 0 0 0-13.973-5.798z" style="isolation:auto;mix-blend-mode:normal;solid-color:#000;solid-opacity:1" transform="translate(534.028 -745.19)" color="#000" clip-rule="nonzero" display="inline" overflow="visible" visibility="visible" opacity="1" color-interpolation="sRGB" color-interpolation-filters="linearRGB" fill="#bb7612" fill-opacity="1" fill-rule="nonzero" stroke="none" stroke-width="1.5" stroke-linecap="butt" stroke-linejoin="miter" stroke-miterlimit="4" stroke-dasharray="none" stroke-dashoffset="0" stroke-opacity="1" color-rendering="auto" image-rendering="auto" shape-rendering="auto" text-rendering="auto" enable-background="accumulate" class="color4e7ac1 svgShape"></path>
  <path d="M22.5 8a.5.5 0 0 0-.5.5v1.313c-2.734.818-4.77 3.245-4.979 6.187H16.5a.5.5 0 0 0-.5.5v2a.5.5 0 0 0 .5.5h.516c.092 2.149 1.067 4.064 2.564 5.346a12 12 0 0 0-7.566 11.078c0 .027-.014.049-.014.076a.5.5 0 0 0 .346.475c.016.01.032.01.049.013.032.01.066.011.1.012H35.5a.5.5 0 0 0 .5-.5c0-5.066-3.146-9.4-7.592-11.158 1.486-1.283 2.452-3.197 2.547-5.342h.545a.5.5 0 0 0 .5-.5v-2a.5.5 0 0 0-.5-.5h-.521c-.209-2.943-2.245-5.37-4.979-6.188V8.5a.5.5 0 0 0-.5-.5Zm.5 1h2v3.213a2.463 2.463 0 0 0-2 0zm3 1.863c.54.192 1.043.454 1.5.783v1.973c-.01.676 1.01.676 1 0v-1.064A5.945 5.945 0 0 1 29.957 16H28.5c-.676-.01-.676 1.01 0 1H31v1H17v-1h2.5c.676.01.676-1.01 0-1h-1.457a5.941 5.941 0 0 1 1.457-3.443v1.062c-.01.676 1.01.676 1 0v-1.97c.457-.33.96-.592 1.5-.784v2.15c-.31.417-.5.929-.5 1.485 0 1.375 1.125 2.5 2.5 2.5s2.5-1.125 2.5-2.5c0-.556-.19-1.068-.5-1.484zM24 13c.834 0 1.5.666 1.5 1.5S24.834 16 24 16s-1.5-.666-1.5-1.5.666-1.5 1.5-1.5zm-5.984 6h11.968C29.82 22.358 27.2 24.998 24 24.998s-5.82-2.64-5.984-5.998Zm3.734.7a.75.75 0 1 0 0 1.5.75.75 0 0 0 0-1.5zm4.5 0a.75.75 0 1 0 0 1.5.75.75 0 0 0 0-1.5zm1.166 5.35c.197.065.392.13.584.206V31h-8v-5.746c.187-.073.378-.136.57-.2a6.65 6.65 0 0 0 6.846-.004zM19 25.71v5.288h-1v-4.705c.321-.212.656-.404 1-.582zm10 0a10.8 10.8 0 0 1 1 .585V31h-1Zm-12 1.331v3.957h-.5a.5.5 0 0 0-.5.5v3.5h-2.916A11.039 11.039 0 0 1 17 27.041Zm14 0a11.039 11.039 0 0 1 3.916 7.957H32v-3.5l-.008.01a.5.5 0 0 0-.492-.51H31zm-14 4.957h14v3H17z" style="line-height:normal;text-indent:0;text-align:start;text-decoration-line:none;text-decoration-style:solid;text-decoration-color:#000;text-transform:none;block-progression:tb;white-space:normal;isolation:auto;mix-blend-mode:normal;solid-color:#000;solid-opacity:1" color="#000" font-style="normal" font-variant="normal" font-weight="400" font-stretch="normal" font-size="medium" font-family="sans-serif" text-decoration="none" letter-spacing="normal" word-spacing="normal" direction="ltr" writing-mode="lr-tb" baseline-shift="baseline" text-anchor="start" clip-rule="nonzero" display="inline" overflow="visible" visibility="visible" opacity="1" color-interpolation="sRGB" color-interpolation-filters="linearRGB" fill="#ffffff" fill-opacity="1" fill-rule="nonzero" stroke="none" stroke-width=".99999994" stroke-linecap="round" stroke-linejoin="round" stroke-miterlimit="4" stroke-dasharray="none" stroke-dashoffset="0" stroke-opacity="1" color-rendering="auto" image-rendering="auto" shape-rendering="auto" text-rendering="auto" enable-background="accumulate" class="colorffffff svgShape"></path>
</svg>
