<svg xmlns="http://www.w3.org/2000/svg" viewBox="0 0 512 512" id="Corporation">
  <path fill="#bb7612" d="m183.626,330.943c13.393-5.296,27.89-5.284,40.819.03l88.381,36.333v-233.782h-140.5v201.887l11.299-4.468Zm75.881-181.618h22.139c3.313,0,6,2.687,6,6s-2.687,6-6,6h-22.139c-3.313,0-6-2.687-6-6s2.687-6,6-6Zm0,25.375h22.139c3.313,0,6,2.687,6,6s-2.687,6-6,6h-22.139c-3.313,0-6-2.687-6-6s2.687-6,6-6Zm0,25.375h22.139c3.313,0,6,2.687,6,6s-2.687,6-6,6h-22.139c-3.313,0-6-2.687-6-6s2.687-6,6-6Zm0,25.375h22.139c3.313,0,6,2.687,6,6s-2.687,6-6,6h-22.139c-3.313,0-6-2.687-6-6s2.687-6,6-6Zm0,25.375h22.139c3.313,0,6,2.687,6,6s-2.687,6-6,6h-22.139c-3.313,0-6-2.687-6-6s2.687-6,6-6Zm0,28.474h22.139c3.313,0,6,2.687,6,6s-2.687,6-6,6h-22.139c-3.313,0-6-2.687-6-6s2.687-6,6-6Zm0,26.925h22.139c3.313,0,6,2.687,6,6s-2.687,6-6,6h-22.139c-3.313,0-6-2.687-6-6s2.687-6,6-6Zm-56-156.898h22.139c3.313,0,6,2.687,6,6s-2.687,6-6,6h-22.139c-3.313,0-6-2.687-6-6s2.687-6,6-6Zm0,25.375h22.139c3.313,0,6,2.687,6,6s-2.687,6-6,6h-22.139c-3.313,0-6-2.687-6-6s2.687-6,6-6Zm0,25.375h22.139c3.313,0,6,2.687,6,6s-2.687,6-6,6h-22.139c-3.313,0-6-2.687-6-6s2.687-6,6-6Zm0,25.375h22.139c3.313,0,6,2.687,6,6s-2.687,6-6,6h-22.139c-3.313,0-6-2.687-6-6s2.687-6,6-6Zm0,25.375h22.139c3.313,0,6,2.687,6,6s-2.687,6-6,6h-22.139c-3.313,0-6-2.687-6-6s2.687-6,6-6Zm0,28.474h22.139c3.313,0,6,2.687,6,6s-2.687,6-6,6h-22.139c-3.313,0-6-2.687-6-6s2.687-6,6-6Zm0,26.925h22.139c3.313,0,6,2.687,6,6s-2.687,6-6,6h-22.139c-3.313,0-6-2.687-6-6s2.687-6,6-6Z" class="color94c1ff svgShape"></path>
  <rect width="100.966" height="15.653" x="192.094" y="61.8" fill="#bb7612" class="color94c1ff svgShape"></rect>
  <path fill="#bb7612" d="m109.071,485.849v-137.738H29.997v147.889h68.923c5.597,0,10.15-4.554,10.15-10.151Z" class="color94c1ff svgShape"></path>
  <path fill="#ff9e11" d="M114.628 219.699h22.139c3.313 0 6-2.687 6-6s-2.687-6-6-6h-22.139c-3.313 0-6 2.687-6 6s2.687 6 6 6zM142.767 315.199c0-3.313-2.687-6-6-6h-22.139c-3.313 0-6 2.687-6 6s2.687 6 6 6h22.139c3.313 0 6-2.687 6-6zM114.628 245.074h22.139c3.313 0 6-2.687 6-6s-2.687-6-6-6h-22.139c-3.313 0-6 2.687-6 6s2.687 6 6 6zM114.628 270.449h22.139c3.313 0 6-2.687 6-6s-2.687-6-6-6h-22.139c-3.313 0-6 2.687-6 6s2.687 6 6 6zM114.628 295.824h22.139c3.313 0 6-2.687 6-6s-2.687-6-6-6h-22.139c-3.313 0-6 2.687-6 6s2.687 6 6 6zM203.507 318.223h22.139c3.313 0 6-2.687 6-6s-2.687-6-6-6h-22.139c-3.313 0-6 2.687-6 6s2.687 6 6 6zM203.507 161.324h22.139c3.313 0 6-2.687 6-6s-2.687-6-6-6h-22.139c-3.313 0-6 2.687-6 6s2.687 6 6 6zM203.507 186.699h22.139c3.313 0 6-2.687 6-6s-2.687-6-6-6h-22.139c-3.313 0-6 2.687-6 6s2.687 6 6 6zM259.507 318.223h22.139c3.313 0 6-2.687 6-6s-2.687-6-6-6h-22.139c-3.313 0-6 2.687-6 6s2.687 6 6 6zM203.507 212.074h22.139c3.313 0 6-2.687 6-6s-2.687-6-6-6h-22.139c-3.313 0-6 2.687-6 6s2.687 6 6 6zM203.507 291.298h22.139c3.313 0 6-2.687 6-6s-2.687-6-6-6h-22.139c-3.313 0-6 2.687-6 6s2.687 6 6 6zM203.507 237.449h22.139c3.313 0 6-2.687 6-6s-2.687-6-6-6h-22.139c-3.313 0-6 2.687-6 6s2.687 6 6 6zM203.507 262.824h22.139c3.313 0 6-2.687 6-6s-2.687-6-6-6h-22.139c-3.313 0-6 2.687-6 6s2.687 6 6 6zM259.507 186.699h22.139c3.313 0 6-2.687 6-6s-2.687-6-6-6h-22.139c-3.313 0-6 2.687-6 6s2.687 6 6 6zM348.387 295.824h22.139c3.313 0 6-2.687 6-6s-2.687-6-6-6h-22.139c-3.313 0-6 2.687-6 6s2.687 6 6 6zM348.387 346.574h22.139c3.313 0 6-2.687 6-6s-2.687-6-6-6h-22.139c-3.313 0-6 2.687-6 6s2.687 6 6 6zM348.387 270.449h22.139c3.313 0 6-2.687 6-6s-2.687-6-6-6h-22.139c-3.313 0-6 2.687-6 6s2.687 6 6 6zM348.387 321.199h22.139c3.313 0 6-2.687 6-6s-2.687-6-6-6h-22.139c-3.313 0-6 2.687-6 6s2.687 6 6 6zM348.387 245.074h22.139c3.313 0 6-2.687 6-6s-2.687-6-6-6h-22.139c-3.313 0-6 2.687-6 6s2.687 6 6 6zM348.387 219.699h22.139c3.313 0 6-2.687 6-6s-2.687-6-6-6h-22.139c-3.313 0-6 2.687-6 6s2.687 6 6 6zM259.507 291.298h22.139c3.313 0 6-2.687 6-6s-2.687-6-6-6h-22.139c-3.313 0-6 2.687-6 6s2.687 6 6 6zM259.507 212.074h22.139c3.313 0 6-2.687 6-6s-2.687-6-6-6h-22.139c-3.313 0-6 2.687-6 6s2.687 6 6 6zM348.387 371.949h22.139c3.313 0 6-2.687 6-6s-2.687-6-6-6h-22.139c-3.313 0-6 2.687-6 6s2.687 6 6 6zM259.507 262.824h22.139c3.313 0 6-2.687 6-6s-2.687-6-6-6h-22.139c-3.313 0-6 2.687-6 6s2.687 6 6 6zM259.507 237.449h22.139c3.313 0 6-2.687 6-6s-2.687-6-6-6h-22.139c-3.313 0-6 2.687-6 6s2.687 6 6 6zM259.507 161.324h22.139c3.313 0 6-2.687 6-6s-2.687-6-6-6h-22.139c-3.313 0-6 2.687-6 6s2.687 6 6 6z" class="color116fff svgShape"></path>
  <path fill="#ff9e11" d="m23.997,508h74.923c9.864,0,18.24-6.483,21.099-15.411h169.068c.609.046,1.25.069,1.929.069,37.029-.007,176-68.143,192.037-76.068,8.414-4.158,12.653-13.41,10.309-22.499-2.344-9.087-10.522-15.134-19.904-14.705-12.956.596-38.813,5.55-67.374,11.611v-201.255c0-3.313-2.687-6-6-6h-6.682v-39.8c0-3.313-2.687-6-6-6s-6,2.687-6,6v39.8h-13.153v-50.002c0-3.313-2.687-6-6-6s-6,2.687-6,6v50.002h-31.423v-50.219h3c3.313,0,6-2.687,6-6v-44.071c0-3.313-2.687-6-6-6h-22.767v-21.653c0-3.313-2.687-6-6-6h-50.483V10c0-3.313-2.687-6-6-6s-6,2.687-6,6v39.799h-50.483c-3.313,0-6,2.687-6,6v21.653h-22.767c-3.313,0-6,2.687-6,6v44.071c0,3.313,2.687,6,6,6h3v50.219h-31.423v-50.002c0-3.313-2.687-6-6-6s-6,2.687-6,6v50.002h-13.154v-39.8c0-3.313-2.687-6-6-6s-6,2.687-6,6v39.8h-6.682c-3.313,0-6,2.687-6,6v146.368H23.997c-3.313,0-6,2.687-6,6v159.889c0,3.313,2.687,6,6,6ZM324.827,195.742h69.258v197.829c-10.914,2.364-22.008,4.82-32.749,7.198-8.612,1.907-17.039,3.772-24.949,5.496,3.224-4.255,5.236-8.836,5.608-13.363.688-8.363-4.206-15.334-13.426-19.125l-3.742-1.538v-176.497ZM192.094,61.8h100.966v15.653h-100.966v-15.653Zm-28.767,27.653h158.5v32.071h-158.5v-32.071Zm149.5,44.071v233.782l-88.381-36.333c-12.929-5.314-27.426-5.326-40.819-.03l-11.299,4.468v-201.887h140.5Zm-124.788,208.578c10.491-4.149,21.801-4.159,31.844-.03l96.585,39.706c.02.008.04.016.06.025l7.479,3.074c6.393,2.628,6.129,5.835,6.029,7.042-.582,7.073-11.522,17.326-25.489,20.907l-62.251-9.016c-14.506-2.532-26.879,2.158-34.848,13.208-1.938,2.688-1.331,6.438,1.356,8.376,1.062.766,2.289,1.134,3.505,1.134,1.862,0,3.699-.865,4.871-2.491,6.596-9.147,16.215-9.614,23.124-8.394.061.011.122.021.183.029l63.498,9.196c.025.004.05.004.075.007.118.016.237.025.356.033.086.006.172.014.257.016.094.003.189,0,.284-.002.112-.002.223-.004.334-.012.068-.005.135-.015.203-.022.136-.015.27-.031.403-.055.016-.003.032-.004.048-.007,4.125-.77,8.859-1.717,14.031-2.79.04-.008.08-.016.12-.025,12.62-2.619,27.906-6.003,43.831-9.528,12.257-2.714,24.979-5.53,37.335-8.189.024-.005.048-.01.072-.015,30.857-6.641,59.416-12.298,72.672-12.908,3.702-.169,6.809,2.127,7.734,5.714.926,3.589-.684,7.103-4.006,8.744-78.013,38.554-167.582,76.635-187.857,74.781-.181-.016-.361-.024-.542-.024H121.071v-112.007l66.967-26.48Zm-96.97-146.359h69.259v144.413l-39.256,15.522v-13.567c0-3.313-2.687-6-6-6h-24.003v-140.368Zm-61.071,152.368h79.074v137.738c0,5.597-4.553,10.151-10.15,10.151H29.997v-147.889Z" class="color116fff svgShape"></path>
</svg>
