<svg xmlns="http://www.w3.org/2000/svg" viewBox="0 0 64 64" id="DigitalProcessorMaintenance">
  <path d="M41 38h-8v-2h-2v2h-8a1 1 0 0 0-1 1v18a1 1 0 0 0 1 1h18a1 1 0 0 0 1-1V39a1 1 0 0 0-1-1Zm-1 18H24V40h16Z" fill="#bb7612" class="color000000 svgShape"></path>
  <path d="M27 54h7a1 1 0 0 0 .707-.293l3-3A1 1 0 0 0 38 50v-7a1 1 0 0 0-1-1H27a1 1 0 0 0-1 1v10a1 1 0 0 0 1 1zm1-10h8v5.586L33.588 52H28zm16-2v2h6a1 1 0 0 0 .707-.293l3-3-1.414-1.414L49.586 42zm6.707 10.293A1 1 0 0 0 50 52h-6v2h5.586l2.707 2.707 1.414-1.414zM44 47h10v2H44zM11.707 39.293l-1.414 1.414 3 3A1 1 0 0 0 14 44h6v-2h-5.586zm1.586 13-3 3 1.414 1.414L14.414 54H20v-2h-6a1 1 0 0 0-.707.293zM10 47h10v2H10zM56 40a3 3 0 1 0-3-3 3 3 0 0 0 3 3zm0-4a1 1 0 1 1-1 1 1 1 0 0 1 1-1zm3 9a3 3 0 1 0 3 3 3 3 0 0 0-3-3zm0 4a1 1 0 1 1 1-1 1 1 0 0 1-1 1zm-3 7a3 3 0 1 0 3 3 3 3 0 0 0-3-3zm0 4a1 1 0 1 1 1-1 1 1 0 0 1-1 1zM8 40a3 3 0 1 0-3-3 3 3 0 0 0 3 3zm0-4a1 1 0 1 1-1 1 1 1 0 0 1 1-1zm0 12a3 3 0 1 0-3 3 3 3 0 0 0 3-3zm-4 0a1 1 0 1 1 1 1 1 1 0 0 1-1-1zm4 8a3 3 0 1 0 3 3 3 3 0 0 0-3-3zm0 4a1 1 0 1 1 1-1 1 1 0 0 1-1 1zM31 60h2v2h-2zM35 60h2v2h-2zM39 60h2v2h-2zM23 60h2v2h-2zM27 60h2v2h-2zM41.782 25.012a10.96 10.96 0 0 0 .678-1.639l2.682-.383A1 1 0 0 0 46 22v-4a1 1 0 0 0-.858-.99l-2.682-.383a10.96 10.96 0 0 0-.678-1.639l1.624-2.166a1 1 0 0 0-.093-1.307l-2.828-2.828a1 1 0 0 0-1.307-.093l-2.166 1.624a10.96 10.96 0 0 0-1.639-.678l-.383-2.682A1 1 0 0 0 34 6h-4a1 1 0 0 0-.99.858l-.383 2.682a10.96 10.96 0 0 0-1.639.678l-2.166-1.624a1 1 0 0 0-1.307.093l-2.828 2.828a1 1 0 0 0-.093 1.307l1.624 2.166a10.96 10.96 0 0 0-.678 1.639l-2.682.383A1 1 0 0 0 18 18v4a1 1 0 0 0 .858.99l2.682.383a10.96 10.96 0 0 0 .678 1.639l-1.624 2.166a1 1 0 0 0 .093 1.307l2.828 2.828a1 1 0 0 0 1.307.093l2.166-1.624a10.96 10.96 0 0 0 1.639.678l.383 2.682A1 1 0 0 0 30 34h4a1 1 0 0 0 .99-.858l.383-2.682a10.96 10.96 0 0 0 1.639-.678l2.166 1.624a1 1 0 0 0 1.307-.093l2.828-2.828a1 1 0 0 0 .093-1.307Zm-1.988.683 1.492 1.99-1.6 1.6-1.986-1.491a1 1 0 0 0-1.111-.06 8.892 8.892 0 0 1-2.356.975 1 1 0 0 0-.743.828L33.133 32h-2.266l-.352-2.463a1 1 0 0 0-.743-.828 8.892 8.892 0 0 1-2.356-.975 1 1 0 0 0-1.111.06l-1.99 1.492-1.6-1.6 1.492-1.99a1 1 0 0 0 .06-1.111 8.892 8.892 0 0 1-.975-2.356 1 1 0 0 0-.828-.743L20 21.133v-2.266l2.463-.352a1 1 0 0 0 .828-.743 8.892 8.892 0 0 1 .975-2.356 1 1 0 0 0-.06-1.111l-1.492-1.99 1.6-1.6 1.99 1.492a1 1 0 0 0 1.111.06 8.892 8.892 0 0 1 2.356-.975 1 1 0 0 0 .743-.828L30.867 8h2.266l.352 2.463a1 1 0 0 0 .743.828 8.892 8.892 0 0 1 2.356.975 1 1 0 0 0 1.111-.06l1.99-1.492 1.6 1.6-1.492 1.99a1 1 0 0 0-.06 1.111 8.892 8.892 0 0 1 .975 2.356 1 1 0 0 0 .828.743l2.464.353v2.266l-2.463.352a1 1 0 0 0-.828.743 8.892 8.892 0 0 1-.975 2.356 1 1 0 0 0 .06 1.116Z" fill="#bb7612" class="color000000 svgShape"></path>
  <path d="M32 14a6 6 0 1 0 6 6 6.006 6.006 0 0 0-6-6Zm0 10a4 4 0 1 1 4-4 4 4 0 0 1-4 4ZM31 2h2v2h-2zM22.134 4.912l1.732-1 1 1.732-1.731 1zM15.911 11.866l1-1.732 1.732 1-1 1.732zM14 19h2v2h-2zM15.912 28.134l1.732-1 1 1.731-1.732 1zM22.134 35.088l1-1.732 1.732 1-1 1.732zM39.134 34.356l1.732-1 1 1.732-1.732 1zM45.357 28.867l1-1.732 1.731 1-1 1.732zM48 19h2v2h-2zM45.356 11.134l1.732-1 1 1.732-1.732 1zM39.133 5.644l1-1.732 1.732 1-1 1.731z" fill="#bb7612" class="color000000 svgShape"></path>
</svg>
