<svg xmlns="http://www.w3.org/2000/svg" viewBox="0 0 128 128" id="Fashion">
  <path d="M82.326 49.565c1.91 5.592 7.419 23.128 8.08 25.077a2.029 2.029 0 0 0 2.384 1.312l8.647-2.007a2.004 2.004 0 0 0 1.562-2.01c-.554-17.298-8.064-54.116-9.22-57.567C91.025 6.178 81.889 0 72.528 0a2.027 2.027 0 0 0-2.026 1.986V2H56.51v-.002A2.04 2.04 0 0 0 54.453 0a21.499 21.499 0 0 0-20.233 14.367c-1.046 3.094-8.392 39.739-9.219 57.541a2.003 2.003 0 0 0 1.455 2.011s8.347 2.384 8.535 2.384a2.026 2.026 0 0 0 1.917-1.353c.698-2.015 6.215-18.99 8.157-24.505.044.084.085.176.13.255.698 1.226.214 2.513-1.241 5.612-2.427 5.166-6.095 12.973-1.644 27.277.817 2.618 2.124 16.13 2.554 20.57.114 1.185.191 1.957.212 2.104a2.013 2.013 0 0 0 1.696 1.694 106.782 106.782 0 0 0 14.695 1.035V124H50.325a2 2 0 1 0 0 4h26.337a2 2 0 1 0 0-4H65.52v-15.038a92.046 92.046 0 0 0 14.826-1.38 2.012 2.012 0 0 0 1.609-1.643c.106-.65.222-2.001.436-4.531.452-5.372 1.21-14.362 2.286-17.82 4.45-14.303.782-22.11-1.644-27.276-1.456-3.1-1.94-4.386-1.242-5.61a9.805 9.805 0 0 0 .535-1.137ZM69.388 6a13.475 13.475 0 0 1-5.877 5.9A13.505 13.505 0 0 1 57.628 6Zm-20.447 98.22-.043-.442c-.878-9.078-1.888-18.716-2.715-21.365-3.993-12.836-.848-19.53 1.448-24.419A25.603 25.603 0 0 0 49.246 54h4.491a40.386 40.386 0 0 1-1.131 2.213c-2.804 5.202-7.042 13.063-1.894 27.468.93 2.594 2.429 16.083 2.921 20.516l.055.493a88.207 88.207 0 0 1-4.747-.47ZM63.494 40a2.013 2.013 0 0 0-2.026 2v8H49.577c-1.611-3.89-2.147-11.16-2.272-16.166a14.806 14.806 0 0 0 2.34 1.05l.019.005.017.007c3.398 1.124 9.705.005 13.83-3.012A21.165 21.165 0 0 0 74.94 35.36a10.859 10.859 0 0 0 3.388-.468l.011-.005.017-.004a15.006 15.006 0 0 0 2.09-.92C80.018 38.988 79.091 46.14 77.422 50H65.52v-8a2.013 2.013 0 0 0-2.026-2Zm-2.026 64.993c-1.242-.01-2.471-.037-3.68-.082l-.127-1.15c-1.01-9.09-2.171-18.743-3.128-21.413-4.555-12.745-.969-19.398 1.65-24.256.535-.992 1.04-1.93 1.429-2.83A11.7 11.7 0 0 0 58.076 54h2.48c-.133.299-.263.59-.411.916-2.433 5.333-6.11 13.392-1.646 28.152.962 3.173 2.528 13.4 2.776 15.13l.193 3.214Zm3.142-23.07a38.924 38.924 0 0 0-1.049 5.282c-.401-2.133-.817-4.087-1.18-5.283-3.834-12.676-1.153-19.588 1.112-24.602 2.263 5.015 4.946 11.926 1.117 24.602Zm5.018 19.49c-.131 1.367-.25 2.595-.343 3.405-1.11.06-2.251.104-3.415.134.086-.84.186-2.046.317-3.617.456-5.487 1.219-14.67 2.306-18.27 4.456-14.752.783-22.81-1.648-28.142-.15-.328-.28-.622-.415-.923h2.475a11.69 11.69 0 0 0 .466 1.28c.39.912.895 1.855 1.43 2.854 2.62 4.9 6.21 11.612 1.655 24.464-1.392 3.925-2.256 12.886-2.828 18.816Zm11.175-19c-1.204 3.871-1.954 12.773-2.45 18.663-.091 1.075-.175 2.071-.247 2.841a71.97 71.97 0 0 1-4.713.594c.074-.705.16-1.59.269-2.719.52-5.388 1.389-14.406 2.618-17.873 5.139-14.499.905-22.415-1.897-27.653A40.393 40.393 0 0 1 73.235 54h4.506a25.611 25.611 0 0 0 1.616 3.994c2.296 4.888 5.44 11.583 1.446 24.42Zm.489-54.789a6.732 6.732 0 0 1-4.281 3.486c-2.497.83-9.253-.435-12.067-3.254a2.04 2.04 0 0 0-1.44-.596h-.003a2.04 2.04 0 0 0-1.439.592c-2.972 2.96-8.762 4.012-11.081 3.255a6.741 6.741 0 0 1-4.264-3.461c-1.133-2.644.25-5.733.283-5.807a1.99 1.99 0 0 0-.98-2.651 2.036 2.036 0 0 0-2.694.965c-.09.19-2.18 4.701-.357 9.012.086.203.19.394.29.589a1.931 1.931 0 0 0-.025.204 100.007 100.007 0 0 0 .584 12.64c-.194.194-5.871 16.194-8.09 23.025-.766 2.355-1.455 4.477-2.037 6.22l-4.555-1.317c1.138-18.006 7.937-51.96 8.93-54.898A17.394 17.394 0 0 1 52.719 4.09c.621 2.979 2.735 8.445 9.913 11.86a2.048 2.048 0 0 0 1.76 0c7.18-3.416 9.288-8.885 9.906-11.864 7.044.692 13.578 5.423 15.637 11.54.82 2.45 8.005 37.049 8.945 54.805l-5.204 1.208c-.574-1.769-1.277-4.006-2.057-6.491-2.24-7.132-7.843-23.453-7.972-23.615.866-5.7 1.103-11.066 1.119-11.452a1.97 1.97 0 0 0-.02-.336c.097-.192.201-.38.286-.581 1.824-4.311-.267-8.822-.357-9.012a2.036 2.036 0 0 0-2.693-.965 1.99 1.99 0 0 0-.978 2.659c.015.03 1.412 3.122.289 5.777Z" fill="#bd6e00" class="color000000 svgShape"></path>
</svg>
