<svg xmlns="http://www.w3.org/2000/svg" id="filmcassette" viewBox="0 0 64 64">
  <path fill="#bd6e00" d="M59,46H38.9767a20.5058,20.5058,0,1,0-15.1442,5.9662A.9507.9507,0,0,0,24,52H59a1,1,0,0,0,1-1V47A1,1,0,0,0,59,46ZM6,31.5A18.5,18.5,0,1,1,35.5194,46.3253c-.3365.2507-.6771.4937-1.0259.72-.0915.0589-.1866.1123-.2791.17a18.401,18.401,0,0,1-3.04,1.52c-.3226.1254-.6454.2505-.9764.358-.2015.0658-.4062.1206-.61.1793-.349.1-.7008.1929-1.0578.2726q-.2987.0669-.5995.1239c-.3858.0727-.7765.1308-1.17.1791-.1767.0216-.3523.0484-.53.0649C25.66,49.9655,25.0842,50,24.5,50c-.07,0-.14-.0059-.209-.0107-.0879-.0059-.1758-.0122-.2646-.0142l-.0044.0007A18.51,18.51,0,0,1,6,31.5ZM58,50H33.3145c.1174-.0565.2287-.1277.3451-.1865.3812-.1915.7551-.3926,1.1223-.6067.1632-.0955.3241-.1947.485-.2949.4123-.256.815-.5234,1.2072-.8071.0512-.0371.1059-.0672.1568-.1048H58Z" class="color0500d0 svgShape"></path>
  <path fill="#bd6e00" d="M24.5 37A5.5 5.5 0 1 0 19 31.5 5.5066 5.5066 0 0 0 24.5 37Zm0-9A3.5 3.5 0 1 1 21 31.5 3.5042 3.5042 0 0 1 24.5 28ZM24.5 49A5.5 5.5 0 1 0 19 43.5 5.5066 5.5066 0 0 0 24.5 49Zm0-9A3.5 3.5 0 1 1 21 43.5 3.5042 3.5042 0 0 1 24.5 40ZM37 37a5 5 0 1 0-5-5A5.0059 5.0059 0 0 0 37 37Zm0-8a3 3 0 1 1-3 3A3.0033 3.0033 0 0 1 37 29ZM12 27a5 5 0 1 0 5 5A5.0059 5.0059 0 0 0 12 27Zm0 8a3 3 0 1 1 3-3A3.0033 3.0033 0 0 1 12 35ZM24.5 25A5.5 5.5 0 1 0 19 19.5 5.5066 5.5066 0 0 0 24.5 25Zm0-9A3.5 3.5 0 1 1 21 19.5 3.5042 3.5042 0 0 1 24.5 16Z" class="color0500d0 svgShape"></path>
</svg>
