<svg xmlns="http://www.w3.org/2000/svg" viewBox="0 0 512 512" id="FloorPlane">
  <path fill="#e8e7e6" d="M508 151.106V466.21c0 23.1-18.691 41.79-41.79 41.79H45.79C22.689 508 4 489.31 4 466.21V151.106h504z" class="colore6e8e7 svgShape"></path>
  <path d="M508 432.084v34.125c0 23.1-18.691 41.791-41.79 41.791H45.79C22.691 508 4 489.309 4 466.209v-34.125c0 23.1 18.691 41.791 41.79 41.791h420.419c23.1-.002 41.791-18.691 41.791-41.791z" opacity=".05" fill="#000000" class="color000000 svgShape"></path>
  <path fill="#b56b05" d="M87.685 151.106V466.21c0-23.1-18.795-41.895-41.895-41.895C22.689 424.315 4 443.11 4 466.21V151.106c0-23.1 18.688-41.895 41.79-41.895 23.1 0 41.895 18.795 41.895 41.895zm336.6 0V466.21c0-23.1 18.795-41.895 41.895-41.895 23.101 0 41.79 18.795 41.79 41.895V151.106c0-23.1-18.688-41.895-41.79-41.895-23.1 0-41.895 18.795-41.895 41.895z" class="color72b505 svgShape"></path>
  <path d="M59.441 111.519c-16.485 5.669-28.245 21.211-28.245 39.585v275.834c-15.855 5.985-27.195 21.315-27.195 39.27V151.105c0-23.1 18.691-41.895 41.79-41.895 4.724-.001 9.345.839 13.65 2.309zm420.419 0c-16.485 5.565-28.35 21.211-28.35 39.585v275.939c-15.855 5.88-27.195 21.211-27.195 39.165V151.106c0-23.1 18.795-41.895 41.895-41.895 4.724-.002 9.344.838 13.65 2.308z" opacity=".05" fill="#000000" class="color000000 svgShape"></path>
  <path d="M368.904 225.219H341.83a4 4 0 1 0 0 8h27.074c7.627 0 13.832 6.203 13.832 13.832v78.499h-17.728a4 4 0 1 0 0 8h17.728v78.504c0 7.629-6.205 13.832-13.832 13.832H265.431V333.55h72.053a4 4 0 1 0 0-8h-72.053v-92.332H293.3a4 4 0 1 0 0-8H143.096c-12.039 0-21.833 9.793-21.833 21.833v165.004c0 12.039 9.793 21.831 21.833 21.831h17.658a3.997 3.997 0 0 0 3.072-1.438l30.893-37.05a4 4 0 0 0-.51-5.633 3.996 3.996 0 0 0-5.635.508l-29.693 35.614h-15.785c-7.627 0-13.832-6.203-13.832-13.832v-109.34h18.454a4 4 0 1 0 0-8h-18.454v-47.664c0-7.629 6.205-13.832 13.832-13.832h65.808v21.191c0 2.211 1.791 4 4 4s4-1.789 4-4v-21.191h40.527v61.496h-40.527v-16.926c0-2.211-1.791-4-4-4s-4 1.789-4 4v16.926H175.24a4 4 0 1 0 0 8h82.191v123.171h-51.047a4 4 0 1 0 0 8h162.519c12.039 0 21.831-9.793 21.831-21.831V247.051c.002-12.04-9.791-21.832-21.83-21.832z" fill="#000000" class="color000000 svgShape"></path>
  <path d="M511.97 151.106c0-25.304-20.541-45.894-45.79-45.894-23.956 0-43.655 18.459-45.691 41.894H91.483c-2.037-23.435-21.738-41.894-45.693-41.894-25.248 0-45.79 20.59-45.79 45.894V466.21C0 491.46 20.542 512 45.79 512h420.421C491.459 512 512 491.46 512 466.21l-.03-315.104zm-83.686 0c0-20.895 17-37.894 37.894-37.894 20.838 0 37.791 17 37.791 37.894V440.32c-8.257-12.071-22.117-20.003-37.791-20.003-15.721 0-29.619 7.946-37.894 20.031V151.106zM8 151.106c0-20.895 16.951-37.894 37.789-37.894 20.897 0 37.896 17 37.896 37.894v289.242c-8.276-12.086-22.175-20.031-37.896-20.031-15.672 0-29.531 7.934-37.789 20.003V151.106zM466.21 504H45.79c-20.838 0-37.789-16.953-37.789-37.789 0-20.895 16.951-37.894 37.789-37.894 20.897 0 37.896 17 37.896 37.894 0 2.211 1.791 4 4 4s4-1.789 4-4V155.107h328.599v311.105a4 4 0 1 0 8 0c0-20.895 17-37.894 37.894-37.894 20.838 0 37.791 17 37.791 37.894 0 .041.023.075.024.116C503.93 487.109 487.009 504 466.21 504z" fill="#000000" class="color000000 svgShape"></path>
  <path fill="#fa9100" d="m408.313 4 49.989 29.356-49.989 29.451z" class="colorfacb00 svgShape"></path>
  <path fill="#6b5940" d="m437.544 45.587 20.758-12.229-20.758-12.19z" class="color405d6b svgShape"></path>
  <path fill="#bd6e00" d="M96.936 4h311.377v58.805H96.936z" class="colorfd4746 svgShape"></path>
  <path d="M96.893 47.365h311.429V62.8H96.893z" opacity=".05" fill="#000000" class="color000000 svgShape"></path>
  <path fill="#6b5940" d="M96.94 4H72.458C62.097 4 53.7 12.399 53.7 22.758v21.29c0 10.36 8.398 18.757 18.757 18.757H96.94V4z" class="color405d6b svgShape"></path>
  <path d="M72.458 66.805h335.857c.636 0 1.634-.321 2.032-.555l49.989-29.45c2.623-1.545 2.622-5.349-.005-6.895L410.341.55c-.398-.233-1.377-.548-2.018-.549L72.459 0c-12.55 0-22.758 10.211-22.758 22.757v21.289C49.7 56.594 59.908 66.805 72.458 66.805zm28.482-29.402h303.374v21.402H100.94V37.403zm311.374-26.414 21.23 12.467v19.842l-21.23 12.508V10.989zm29.231 27.595V28.152l8.867 5.207-8.867 5.225zm-37.23-9.181H100.94V8h303.374l.001 21.403zM57.7 22.759c0-8.137 6.621-14.758 14.758-14.758h20.479v50.805H72.458c-8.137 0-14.758-6.621-14.758-14.758V22.759z" fill="#000000" class="color000000 svgShape"></path>
</svg>
