<svg xmlns="http://www.w3.org/2000/svg" viewBox="0 0 64 64" id="Journalism">
  <path d="M21,43a8,8,0,1,0,8,8A8.009,8.009,0,0,0,21,43Zm0,14a6,6,0,1,1,6-6A6.006,6.006,0,0,1,21,57Z" fill="#bb7612" class="color000000 svgShape"></path>
  <path d="M59.879,14a3.142,3.142,0,0,0-2.207.914L53,19.586V7a2,2,0,0,0-2-2H49V4a3,3,0,0,0-6,0V5H38V4a3,3,0,0,0-6,0V5H27V4a3,3,0,0,0-6,0V5H19a2,2,0,0,0-2,2V39.7c-.264.094-.527.189-.782.3H12V39a3,3,0,0,0-3-3H7a3,3,0,0,0-3,3v1a3,3,0,0,0-3,3V59a3,3,0,0,0,3,3H16.218a11.934,11.934,0,0,0,9.564,0H38a3,3,0,0,0,3-3V53H51a2,2,0,0,0,2-2V28.414l9.086-9.086A3.121,3.121,0,0,0,59.879,14ZM57,18.414,58.586,20l-14.1,14.1-2.114.528.529-2.114ZM45,4a1,1,0,0,1,2,0V8a1,1,0,0,1-2,0ZM34,4a1,1,0,0,1,2,0V8a1,1,0,0,1-2,0ZM23,4a1,1,0,0,1,2,0V8a1,1,0,0,1-2,0ZM6,39a1,1,0,0,1,1-1H9a1,1,0,0,1,1,1v1H6ZM3,47H4a1,1,0,0,1,1,1v6a1,1,0,0,1-1,1H3ZM4,60a1,1,0,0,1-1-1V57H4a3,3,0,0,0,3-3V48a3,3,0,0,0-3-3H3V43a1,1,0,0,1,1-1h9.089a11.949,11.949,0,0,0,0,18Zm7-9A10,10,0,1,1,21,61,10.011,10.011,0,0,1,11,51Zm27,9H28.911a11.949,11.949,0,0,0,0-18H38a1,1,0,0,1,1,1v2H38a3,3,0,0,0-3,3v6a3,3,0,0,0,3,3h1v2A1,1,0,0,1,38,60ZM30,36V32h6v4Zm4,2v2H32V38Zm5,9v8H38a1,1,0,0,1-1-1V48a1,1,0,0,1,1-1Zm12,4H41V43a3,3,0,0,0-3-3H36V38a2,2,0,0,0,2-2V32a2,2,0,0,0-2-2H30a2,2,0,0,0-2,2v4a2,2,0,0,0,2,2v2H25.782A11.694,11.694,0,0,0,19,39.181V7h2V8a3,3,0,0,0,6,0V7h5V8a3,3,0,0,0,6,0V7h5V8a3,3,0,0,0,6,0V7h2V21.586l-9.707,9.707a1,1,0,0,0-.263.464l-1,4a1,1,0,0,0,1.212,1.213l4-1a1,1,0,0,0,.465-.263L51,30.414Zm9.672-33.086L60,18.586,58.414,17l.672-.672A1.121,1.121,0,0,1,61,17.121,1.112,1.112,0,0,1,60.672,17.914Z" fill="#bb7612" class="color000000 svgShape"></path>
  <rect width="24" height="2" x="23" y="16" fill="#bb7612" class="color000000 svgShape"></rect>
  <rect width="24" height="2" x="23" y="20" fill="#bb7612" class="color000000 svgShape"></rect>
  <rect width="12" height="2" x="23" y="24" fill="#bb7612" class="color000000 svgShape"></rect>
</svg>
