<svg xmlns="http://www.w3.org/2000/svg" viewBox="0 0 64 64" id="Pharmaceutical">
  <path d="M47.77051,18.37939,44.52637,21.624l1.9433,1.94342-3.83582,3.83533-1.94342-1.9433-6.44336,6.44318V25.69141a1.49337,1.49337,0,0,0-1.13281-1.46192c-1.14746-.25976-2.377-1.09765-2.377-1.93164a2.01147,2.01147,0,0,1,2.00879-2.00928h.66309L29.794,7.66113a1.49959,1.49959,0,0,0-2.88379-.00049L23.29492,20.28857H23.958a2.01147,2.01147,0,0,1,2.00879,2.00928c0,.834-1.22852,1.67236-2.377,1.93164A1.49337,1.49337,0,0,0,22.457,25.69141V42.1582a2.4319,2.4319,0,0,0,.32288,1.21137l-2.70178,2.70172,1.94335,1.94336L19.49219,50.544,20.584,51.63574l-5.084,5.084.707.707,5.084-5.084,1.09179,1.0918,2.5293-2.5293,1.94336,1.94336,20.6123-20.6123L45.5246,30.29327l3.8349-3.83575,1.94323,1.94336,3.24512-3.24463Zm-23.14911.90918,3.24969-11.353A.50029.50029,0,0,1,28.833,7.936L32.0827,19.28857ZM23.457,25.69141a.49328.49328,0,0,1,.35352-.48633c1.53027-.34619,3.15625-1.48242,3.15625-2.90723a2.988,2.988,0,0,0-.78266-2.00928H30.52a2.988,2.988,0,0,0-.78266,2.00928c0,1.42432,1.626,2.561,3.15625,2.90723a.49327.49327,0,0,1,.35352.48633v.70623a15.41614,15.41614,0,0,0-4.89453-.71453,15.41893,15.41893,0,0,0-4.89551.7146Zm9.74317,1.7998c-.38477.3208-2.13868.80859-4.84766.80859s-4.46387-.48779-4.84863-.80859c.38476-.3208,2.13964-.8081,4.84863-.8081S32.81543,27.17041,33.2002,27.49121ZM23.457,28.585a15.41685,15.41685,0,0,0,4.89551.71478,15.41032,15.41032,0,0,0,4.89453-.71472v4.31757l-9.7099,9.70972a1.39128,1.39128,0,0,1-.08014-.45417ZM22.38281,52.02051,20.90625,50.544l1.78027-1.78028,1.47657,1.47656Zm23.6709-19.78418L42.87305,35.417l-2.68164-2.68164-.707.707L42.166,36.124l-2.75885,2.75885-1.79682-1.796-.707.707,1.79681,1.79595L35.7915,42.49854l-2.68115-2.68116-.707.707,2.68115,2.68116-2.75879,2.75879L30.5293,44.168l-.707.707,1.79638,1.79639-4.76318,4.76318-5.36328-5.36328L40.69043,26.87354ZM44.8175,29.58624,43.34094,28.1098l3.8357-3.83532,1.47583,1.476ZM45.94043,21.624l1.83008-1.83056,5.36328,5.36279-1.83106,1.83057ZM21.24219,25.69189a1.49393,1.49393,0,0,0-1.13281-1.4624c-1.14844-.25928-2.377-1.09765-2.377-1.93164a2.01147,2.01147,0,0,1,2.00879-2.00928h.66309L16.78906,7.66113a1.49959,1.49959,0,0,0-2.88379-.00049L10.29,20.28857h.66309a2.01146,2.01146,0,0,1,2.00878,2.00928c0,.834-1.22851,1.67236-2.37695,1.93164a1.49393,1.49393,0,0,0-1.13281,1.4624V44.65918h11.79Zm-9.62567-6.40332,3.24969-11.353a.50029.50029,0,0,1,.96192.00049l3.24969,11.35253Zm8.62567,24.37061h-9.79V28.585a15.41685,15.41685,0,0,0,4.89551.71478,15.41035,15.41035,0,0,0,4.89453-.71472ZM10.499,27.49121c.38477-.3208,2.13965-.8081,4.84864-.8081s4.46289.4873,4.84765.8081c-.38476.3208-2.13867.80859-4.84765.80859S10.88379,27.812,10.499,27.49121Zm9.74317-1.09357a15.41617,15.41617,0,0,0-4.89453-.71453,15.41893,15.41893,0,0,0-4.89551.7146v-.70582a.48657.48657,0,0,1,.35351-.48681c1.53028-.34619,3.15625-1.48242,3.15625-2.90723a2.98794,2.98794,0,0,0-.78265-2.00928h4.33582a2.988,2.988,0,0,0-.78266,2.00928c0,1.42481,1.626,2.561,3.15625,2.90723a.48657.48657,0,0,1,.35352.48681ZM14.08789,41.457h.93262v1h-.93262Zm-1.958,0h.93262v1h-.93262Zm1.958-1.86816h.93262v1h-.93262Zm-1.958,0h.93262v1h-.93262Z" fill="#b66b05" class="color000000 svgShape"></path>
</svg>
