<svg xmlns="http://www.w3.org/2000/svg" viewBox="0 0 512 512" id="WireBroken">
  <path d="M350.41 339.8a7.5 7.5 0 0 0-10.61 10.61l26.73 26.73a7.5 7.5 0 0 0 10.61-10.61zM294 369.46a7.5 7.5 0 1 0-14.48 3.88l9.78 36.52a7.51 7.51 0 0 0 7.24 5.56 7.32 7.32 0 0 0 2-.26 7.49 7.49 0 0 0 5.3-9.18zm115.86-80.17-36.52-9.78a7.5 7.5 0 1 0-3.88 14.49l36.54 9.78a7.67 7.67 0 0 0 1.94.26 7.5 7.5 0 0 0 1.94-14.75zM161.59 172.2a7.5 7.5 0 0 0 10.61-10.61l-26.73-26.73a7.5 7.5 0 0 0-10.61 10.61zm-59.45 50.51 36.52 9.78a7.24 7.24 0 0 0 1.94.26 7.5 7.5 0 0 0 1.94-14.75L106 208.22a7.5 7.5 0 0 0-3.88 14.49zM218 142.54a7.49 7.49 0 0 0 7.24 5.56 7.24 7.24 0 0 0 1.94-.26 7.49 7.49 0 0 0 5.3-9.18l-9.78-36.52a7.5 7.5 0 0 0-14.48 3.86zm285.76-92.27-42-42a28.22 28.22 0 0 0-39.86 0l-69.21 69.15-3.6-3.61a20.12 20.12 0 0 0-28.43 0l-26.73 26.73a20.1 20.1 0 0 0 0 28.43l12.21 12.22A52.45 52.45 0 0 1 263 154.06a7.5 7.5 0 0 0-2.3 14.83 69.6 69.6 0 0 0 10.63.83c21.92 0 37.51-10.82 45.38-17.93l16.43 16.43-47.27 47.27a7.5 7.5 0 1 0 10.6 10.6l47.27-47.27 16.43 16.43c-8.2 9.09-21.37 28.47-17.1 56a7.51 7.51 0 0 0 7.41 6.35 7.65 7.65 0 0 0 1.16-.09 7.51 7.51 0 0 0 6.26-8.56 52.37 52.37 0 0 1 12.87-43.1L383 218.07a20.12 20.12 0 0 0 28.43 0l26.73-26.73a20.12 20.12 0 0 0 0-28.43l-3.61-3.6 69.18-69.17a28.23 28.23 0 0 0 .03-39.87zm-76.17 130.46-26.74 26.74a5.1 5.1 0 0 1-7.21 0l-89.11-89.11a5.11 5.11 0 0 1 0-7.21l26.73-26.73a5.11 5.11 0 0 1 7.22 0l89.1 89.1a5.11 5.11 0 0 1 .01 7.21zm65.56-101.2L424 148.7 363.3 88l69.17-69.17a13.22 13.22 0 0 1 18.66 0l42 42a13.21 13.21 0 0 1 .02 18.7zM251.26 343.11a69.6 69.6 0 0 0-10.63-.83c-21.92 0-37.51 10.82-45.38 17.93l-16.43-16.43 47.27-47.27a7.5 7.5 0 1 0-10.6-10.6l-47.27 47.27-16.43-16.43c8.2-9.09 21.37-28.47 17.1-56a7.51 7.51 0 0 0-7.41-6.35 7.65 7.65 0 0 0-1.16.09 7.51 7.51 0 0 0-6.26 8.56 52.37 52.37 0 0 1-12.87 43.1L129 293.93a20.12 20.12 0 0 0-28.43 0l-26.76 26.73a20.12 20.12 0 0 0 0 28.43l3.61 3.6-69.18 69.17a28.23 28.23 0 0 0 0 39.87l42 42a28.22 28.22 0 0 0 39.86 0l69.18-69.18 3.6 3.61a20.12 20.12 0 0 0 28.43 0l26.73-26.73a20.1 20.1 0 0 0 0-28.43l-12.21-12.22A52.45 52.45 0 0 1 249 357.94a7.5 7.5 0 0 0 2.3-14.83zm-171.73 150a13.22 13.22 0 0 1-18.66 0l-42-42a13.21 13.21 0 0 1 0-18.65L88 363.3l60.7 60.7zm127.94-99.51a5.11 5.11 0 0 1 0 7.21l-26.73 26.73a5.11 5.11 0 0 1-7.22 0l-89.1-89.1a5.11 5.11 0 0 1 0-7.21l26.74-26.74a5.1 5.1 0 0 1 7.21 0z" fill="#bb7612" class="color000000 svgShape"></path>
</svg>
